<svg width="33" height="33" viewBox="0 0 33 33" fill="none" xmlns="http://www.w3.org/2000/svg">
<g clip-path="url(#clip0_8016_1232)">
<rect x="0.927246" y="0.651489" width="32" height="32" rx="16" fill="url(#paint0_linear_8016_1232)"/>
<g filter="url(#filter0_d_8016_1232)">
<path d="M10.7051 18.139L16.7445 26.7921V21.8125L10.7051 18.139Z" fill="white"/>
<path d="M16.7441 26.8738L22.7047 18.1392L16.7441 21.8534V26.8738Z" fill="#DFFFDA"/>
<path d="M16.7051 15.5597V20.5229L20.3051 17.7094L16.7051 15.5597Z" fill="#DFFFDA"/>
<path d="M16.7051 6.87347V14.2204L10.7051 17.0775L16.7051 6.87347Z" fill="white"/>
<path d="M22.7053 16.996L16.7053 14.2205V6.87354L22.7053 16.996Z" fill="#DFFFDA"/>
<path d="M13.105 17.7726L16.705 20.5229L16.6814 15.5597L13.105 17.7726Z" fill="white"/>
</g>
</g>
<defs>
<filter id="filter0_d_8016_1232" x="6.70508" y="3.87347" width="24.0002" height="32.0004" filterUnits="userSpaceOnUse" color-interpolation-filters="sRGB">
<feFlood flood-opacity="0" result="BackgroundImageFix"/>
<feColorMatrix in="SourceAlpha" type="matrix" values="0 0 0 0 0 0 0 0 0 0 0 0 0 0 0 0 0 0 127 0" result="hardAlpha"/>
<feOffset dx="2" dy="3"/>
<feGaussianBlur stdDeviation="3"/>
<feComposite in2="hardAlpha" operator="out"/>
<feColorMatrix type="matrix" values="0 0 0 0 0.0748611 0 0 0 0 0.366667 0 0 0 0 0.11357 0 0 0 1 0"/>
<feBlend mode="normal" in2="BackgroundImageFix" result="effect1_dropShadow_8016_1232"/>
<feBlend mode="normal" in="SourceGraphic" in2="effect1_dropShadow_8016_1232" result="shape"/>
</filter>
<linearGradient id="paint0_linear_8016_1232" x1="16.9272" y1="2.65149" x2="35.6953" y2="36.7816" gradientUnits="userSpaceOnUse">
<stop stop-color="#1CAC70"/>
<stop offset="1" stop-color="#EDDC46"/>
</linearGradient>
<clipPath id="clip0_8016_1232">
<rect x="0.927246" y="0.651489" width="32" height="32" rx="16" fill="white"/>
</clipPath>
</defs>
</svg>
