<svg width="22" height="20" viewBox="0 0 22 20" fill="none" xmlns="http://www.w3.org/2000/svg">
<path fill-rule="evenodd" clip-rule="evenodd" d="M16.7771 0.84705C14.9596 0.263837 12.6306 0.497968 11.0259 1.98241C9.41377 0.562564 7.16544 0.250495 5.31483 0.847423C1.09359 2.20632 -0.206918 7.07624 0.970463 10.7521C1.91788 13.7009 3.96125 15.8794 5.93772 17.309C6.92986 18.0266 7.9241 18.5697 8.79128 18.9367C9.62558 19.2898 10.4411 19.5222 11.0515 19.5222C11.6653 19.5222 12.4862 19.2839 13.3226 18.9267C14.1933 18.5549 15.1916 18.0062 16.1862 17.2851C18.1652 15.8501 20.2108 13.6711 21.1307 10.7486C22.3062 7.07131 20.9951 2.20507 16.7771 0.84705ZM14.8913 4.5692C14.3419 4.51276 13.8507 4.91238 13.7943 5.46177C13.7379 6.01116 14.1375 6.50229 14.6869 6.55873C15.0384 6.59484 15.2763 6.74108 15.4327 6.93886C15.5955 7.1448 15.7226 7.47597 15.7066 7.95243C15.6881 8.5044 16.1206 8.96688 16.6725 8.9854C17.2245 9.00393 17.687 8.57148 17.7055 8.0195C17.7345 7.15496 17.5066 6.33713 17.0015 5.69832C16.4898 5.05135 15.7467 4.65709 14.8913 4.5692Z" fill="url(#paint0_linear_8007_151)"/>
<defs>
<linearGradient id="paint0_linear_8007_151" x1="0.556641" y1="10.0372" x2="21.5421" y2="10.0372" gradientUnits="userSpaceOnUse">
<stop stop-color="#DA22FF"/>
<stop offset="1" stop-color="#9733EE"/>
</linearGradient>
</defs>
</svg>
