<svg width="22" height="32" viewBox="0 0 22 32" fill="none" xmlns="http://www.w3.org/2000/svg">
<path d="M11.0959 0.000525385C9.8973 0.000873745 8.74789 0.476451 7.90034 1.32271C7.05281 2.16897 6.57652 3.31665 6.57616 4.51343V6.56356H4.52292C3.92894 6.56306 3.34069 6.67953 2.79184 6.90627C2.24299 7.13301 1.7443 7.46561 1.32431 7.88499C0.904313 8.30435 0.571261 8.80232 0.344203 9.35034C0.117146 9.89839 0.00054111 10.4858 0.0010604 11.0788V15.5902H6.5751V19.6904H4.52186C3.32291 19.6903 2.173 20.1656 1.32501 21.0119C0.477031 21.8582 0.000418815 23.0061 0 24.2032V32H4.52398C5.11739 31.9998 5.70492 31.8828 6.25305 31.6556C6.80116 31.4287 7.29911 31.0961 7.71849 30.6769C8.13785 30.2577 8.4704 29.7601 8.69716 29.2125C8.9239 28.6648 9.04042 28.0782 9.04004 27.4857H9.04583V24.507L9.03373 24.5086V5.53193L9.04373 5.53429V4.51422C9.04477 3.9703 9.26125 3.44887 9.64593 3.06374C10.0306 2.67862 10.5522 2.46107 11.097 2.45857H18.949V4.51422C18.9474 5.05789 18.7301 5.57878 18.3449 5.96296C17.9596 6.34714 17.4377 6.56338 16.8932 6.56435H9.97296V9.02503H16.8921C18.0907 9.02509 19.2402 8.54975 20.0878 7.70357C20.9355 6.85739 21.4117 5.70969 21.4118 4.51291V0L11.0959 0.000525385ZM6.57616 13.1292H2.4681V11.0791C2.469 10.5345 2.68574 10.0125 3.07098 9.62698C3.45619 9.24151 3.97859 9.02394 4.52398 9.02187H6.57722L6.57616 13.1292ZM6.57616 27.488C6.57526 28.0315 6.3587 28.5528 5.97391 28.9373C5.5891 29.322 5.06738 29.5388 4.52292 29.5401H2.46704V24.2046C2.46754 23.6606 2.68438 23.1391 3.0699 22.7546C3.45543 22.3701 3.97805 22.1543 4.52292 22.1545H6.57616V27.488ZM9.97296 15.5899H15.1587V17.6421C15.1567 18.1857 14.9393 18.7064 14.5541 19.0905C14.169 19.4746 13.6472 19.6909 13.1028 19.6922H9.97296V22.1545H13.1039C13.6975 22.1548 14.2854 22.0383 14.8339 21.8116C15.3824 21.5849 15.8808 21.2525 16.3005 20.8334C16.7203 20.4143 17.0532 19.9166 17.2802 19.369C17.5072 18.8213 17.6239 18.2343 17.6236 17.6416H17.6257V13.1287H9.97296V15.5899Z" fill="url(#paint0_linear_8016_340)"/>
<defs>
<linearGradient id="paint0_linear_8016_340" x1="10.7059" y1="0" x2="10.7059" y2="32" gradientUnits="userSpaceOnUse">
<stop stop-color="#3461FF"/>
<stop offset="1" stop-color="#8454EB"/>
</linearGradient>
</defs>
</svg>
